<svg width="21" height="30" viewBox="0 0 21 30" fill="none" xmlns="http://www.w3.org/2000/svg">
<path d="M14.4289 19.2284L14.4289 2.4324C14.4289 1.21426 13.4171 0.222412 12.1744 0.222412L2.2545 0.222412C1.01182 0.222412 -4.44528e-08 1.21426 -9.90475e-08 2.4324L-8.51813e-07 19.2284C-9.06407e-07 20.4465 1.01182 21.4384 2.25449 21.4384L12.1744 21.4384C13.4171 21.4384 14.4289 20.4465 14.4289 19.2284ZM2.25454 20.5544C1.50873 20.5544 0.901832 19.9595 0.901832 19.2284L0.901832 2.4324C0.901833 1.70131 1.50873 1.1064 2.25454 1.1064L12.1744 1.1064C12.9202 1.1064 13.5271 1.70132 13.5271 2.4324L13.5271 19.2284C13.5271 19.9595 12.9202 20.5544 12.1744 20.5544L2.25454 20.5544L2.25454 20.5544Z" fill="#333333"/>
<path d="M11.7235 20.9964L11.7235 0.664426C11.7235 0.420442 11.5215 0.222412 11.2726 0.222412L8.56719 0.222412C8.31829 0.222412 8.11627 0.420442 8.11627 0.664426L8.11627 20.9965C8.11627 21.2404 8.31829 21.4385 8.56719 21.4385L11.2726 21.4385C11.5215 21.4384 11.7235 21.2404 11.7235 20.9964ZM9.0181 20.5544L9.0181 1.1064L10.8217 1.1064L10.8217 20.5544L9.0181 20.5544L9.0181 20.5544Z" fill="#333333"/>
<path d="M5.41083 8.62182L5.41083 3.31775C5.41083 3.07376 5.20881 2.87573 4.95991 2.87573C4.71101 2.87573 4.50903 3.07376 4.50903 3.31775L4.50903 8.62182C4.50903 8.86581 4.71105 9.06384 4.95995 9.06384C5.20885 9.06384 5.41083 8.86581 5.41083 8.62182Z" fill="#333333"/>
<path d="M3.60724 8.62182L3.60724 3.31775C3.60724 3.07376 3.40523 2.87573 3.15634 2.87573C2.90745 2.87573 2.70544 3.07376 2.70544 3.31775L2.70544 8.62182C2.70544 8.86581 2.90745 9.06384 3.15634 9.06384C3.40523 9.0638 3.60724 8.86581 3.60724 8.62182Z" fill="#333333"/>
<path d="M6.31268 17.461L6.31268 16.5767C6.31268 15.8455 5.70578 15.2504 4.95996 15.2504L4.05816 15.2504C3.31235 15.2504 2.70544 15.8455 2.70544 16.5767L2.70544 17.461C2.70544 18.1923 3.31235 18.7874 4.05816 18.7874L4.95996 18.7874C5.70573 18.7874 6.31268 18.1923 6.31268 17.461ZM4.05812 17.9031C3.80922 17.9031 3.6072 17.705 3.6072 17.461L3.6072 16.5767C3.6072 16.3327 3.80922 16.1346 4.05812 16.1346L4.95992 16.1346C5.20882 16.1346 5.41084 16.3327 5.41084 16.5767L5.41084 17.461C5.41084 17.705 5.20882 17.9031 4.95992 17.9031L4.05812 17.9031Z" fill="#333333"/>
<path d="M13.5271 9.94635C14.5543 10.531 19.8347 15.553 20.1992 15.8323C21.0938 16.5209 21.054 17.6902 20.9414 18.3268C20.9149 18.5217 20.8486 18.7035 20.7691 18.8854C20.2721 20.0157 19.4238 27.4537 19.2051 29.4545C19.172 29.7338 18.9334 29.9482 18.6419 29.9482H12.512C12.1939 29.9482 11.9421 29.6948 11.9421 29.3895V28.8179C10.0601 26.8885 9.37752 24.1018 9.37752 24.1018L8.76785 18.9634C7.40272 14.3382 9.05281 14.2018 9.05281 14.2018C9.11245 14.1953 9.16546 14.1953 9.22511 14.1953C11.4053 14.1953 11.7897 18.4112 11.7897 18.4112C11.7897 18.4112 12.5717 19.9963 13.2741 20.5029V16.3975L13.5271 9.94635Z" fill="#333333"/>
</svg>
