<svg width="17" height="30" viewBox="0 0 17 30" fill="none" xmlns="http://www.w3.org/2000/svg">
<path d="M16.3312 16.763C16.0268 16.5021 12.8503 12.637 11.9925 12.0909V2.06093C11.9925 1.04155 11.2398 0.222412 10.3156 0.222412H1.67684C0.747108 0.222412 0 1.04762 0 2.06093V19.6209C0 20.6403 0.752642 21.4594 1.67684 21.4594H4.44944H5.44005L5.2851 20.0153C5.23529 19.9668 5.20208 19.9364 5.15228 19.8879H4.59886H3.49204C3.54738 19.6452 3.56398 19.3782 3.51971 19.1052C3.39796 18.3467 2.85008 17.7339 2.15831 17.5943C1.90374 17.5397 1.65471 17.5579 1.42781 17.6186V3.94799C1.52742 3.9662 1.63257 3.97833 1.73772 3.97833C2.67852 3.97833 3.4367 3.14099 3.4367 2.11554C3.4367 2.00632 3.42563 1.8971 3.40902 1.78788H8.56684C8.55023 1.8971 8.53917 2.00632 8.53917 2.11554C8.53917 3.14705 9.29734 3.97833 10.2381 3.97833C10.3433 3.97833 10.4484 3.9662 10.5481 3.94799V17.2909V21.1257C9.96144 20.6524 9.30841 19.1719 9.30841 19.1719C9.30841 19.1719 8.98743 15.234 7.1667 15.234C7.11689 15.234 7.07262 15.234 7.02281 15.24C7.02281 15.24 5.64481 15.3674 6.78485 19.6877L7.29399 24.4872C7.29399 24.4872 7.864 27.0903 9.4357 28.8924V29.4264C9.4357 29.7115 9.64599 29.9482 9.91163 29.9482H15.0307C15.2742 29.9482 15.4734 29.7479 15.5011 29.487C15.6837 27.6182 16.3921 20.6706 16.8072 19.6149C16.8736 19.445 16.9289 19.2751 16.951 19.093C17.0451 18.4984 17.0783 17.4062 16.3312 16.763Z" fill="#1A76C0"/>
<path d="M6.18161 6.21234C6.74399 6.21234 7.19989 5.71223 7.19989 5.09531C7.19989 4.47839 6.74399 3.97827 6.18161 3.97827C5.61923 3.97827 5.16333 4.47839 5.16333 5.09531C5.16333 5.71223 5.61923 6.21234 6.18161 6.21234Z" fill="#1A76C0"/>
<path d="M2.31879 10.9684C2.31879 12.8919 3.54736 14.4999 5.191 14.9064C5.24081 14.8033 5.29061 14.7123 5.35149 14.6152C5.89383 13.7475 6.62987 13.5897 6.87891 13.5655C6.97852 13.5533 7.07814 13.5472 7.17775 13.5472C7.53194 13.5472 8.01341 13.6201 8.51148 13.9113C9.22538 13.1771 9.67365 12.1274 9.67365 10.9684C9.67365 8.74155 8.02448 6.93335 5.99345 6.93335C3.96242 6.93335 2.31879 8.74155 2.31879 10.9684ZM3.79087 10.6104C4.01223 10.6104 4.01776 10.6104 4.05097 10.3677C4.07864 10.1796 4.12845 10.0037 4.19486 9.82769C4.2336 9.7306 4.29447 9.6942 4.38302 9.72454C4.52137 9.76701 4.65419 9.80949 4.79254 9.85803C4.91983 9.9005 4.93643 9.94904 4.88109 10.0825C4.75934 10.3556 4.70953 10.6347 4.72613 10.9381C4.73167 11.017 4.7372 11.0959 4.77041 11.1626C4.87555 11.4235 5.13566 11.4599 5.29615 11.2415C5.37916 11.1323 5.4345 11.0048 5.48431 10.8713C5.57285 10.6408 5.65587 10.4102 5.76102 10.1978C6.10967 9.50609 6.90105 9.31799 7.44339 9.80948C7.63709 9.98545 7.7699 10.216 7.83631 10.483C7.86398 10.5983 7.91933 10.6529 8.03001 10.6468C8.14069 10.6408 8.24584 10.6468 8.35652 10.6468C8.45614 10.6468 8.50594 10.7015 8.50594 10.8046C8.51148 10.932 8.51148 11.0595 8.50594 11.1869C8.50594 11.3022 8.44507 11.3507 8.34545 11.3507C8.26798 11.3507 8.18496 11.3507 8.10749 11.3507C7.93039 11.3507 7.92486 11.3568 7.89719 11.5449C7.86399 11.7815 7.81418 12.0121 7.7201 12.2305C7.64262 12.4004 7.60388 12.4186 7.44339 12.3701C7.32164 12.3337 7.19989 12.2973 7.08367 12.2548C6.94532 12.2063 6.92872 12.1638 6.99513 12.0242C7.11134 11.7876 7.17222 11.5327 7.20542 11.2658C7.22756 11.0959 7.21096 10.926 7.14455 10.7682C7.02833 10.4709 6.71289 10.4223 6.52473 10.6772C6.45832 10.7621 6.41404 10.8592 6.3753 10.9624C6.27016 11.2233 6.19268 11.4963 6.05986 11.739C5.84403 12.1395 5.54518 12.3883 5.10245 12.358C4.60438 12.3276 4.28894 12.0121 4.12291 11.5145C4.0565 11.3082 4.0565 11.3082 3.85727 11.3022C3.79087 11.3022 3.72446 11.3022 3.65805 11.3022C3.50862 11.2961 3.48095 11.2718 3.48095 11.108C3.48095 11.0595 3.48095 11.0048 3.48095 10.9563C3.47542 10.6165 3.47542 10.6165 3.79087 10.6104Z" fill="#1A76C0"/>
</svg>
