<svg width="29" height="30" viewBox="0 0 29 30" fill="none" xmlns="http://www.w3.org/2000/svg">
<path d="M13.5941 0.222412C6.098 0.222412 0 6.22309 0 13.5995C0 20.976 6.098 26.9767 13.5941 26.9767C15.1619 26.9767 16.274 26.8009 17.2546 26.6457C18.1113 26.5102 18.9199 26.3821 19.938 26.3821C24.8711 26.3821 27.9126 29.7134 27.9422 29.7473C28.0606 29.8793 28.2279 29.9482 28.3965 29.9482C28.5089 29.9482 28.6225 29.9183 28.7222 29.8541C28.9735 29.6954 29.069 29.3802 28.9476 29.1121C28.8811 28.9647 27.2397 25.4807 20.659 23.9819L20.4796 23.9331C18.8532 23.5372 17.5397 22.8923 16.5772 22.016C15.3338 20.8852 15.0963 19.7437 15.0951 19.7365C15.0395 19.4339 14.7518 19.2244 14.4461 19.25C14.1343 19.2779 13.8962 19.5342 13.8962 19.8422C13.8962 19.9028 13.9001 21.0852 14.1098 22.2018C13.9297 22.2142 13.759 22.2203 13.5941 22.2203C8.76365 22.2203 4.83345 18.3529 4.83345 13.5995C4.83345 8.8462 8.76365 4.97872 13.5941 4.97872C18.4245 4.97872 22.3547 8.8462 22.3547 13.5995C22.3547 13.9539 22.3322 14.3123 22.2863 14.669C21.1468 14.4918 20.0135 14.4913 19.938 14.4913C19.5863 14.4913 19.3338 14.7883 19.3338 15.0975C19.341 15.4203 19.6087 15.6798 19.9368 15.6804C19.9489 15.6804 21.2061 15.6922 22.3311 16.4038C24.1962 17.5834 24.6427 19.3646 24.6463 19.38C24.7025 19.625 24.9094 19.8078 25.1632 19.8375C25.4151 19.8631 25.6621 19.7366 25.7756 19.5112C26.7127 17.6474 27.1881 15.6578 27.1881 13.5995C27.1881 6.22309 21.0901 0.222412 13.5941 0.222412ZM22.7382 19.2488C22.5901 19.2399 22.4748 19.3033 22.4113 19.4125C22.2833 19.6331 22.3787 20.0702 22.6367 20.4507C22.8983 20.8359 23.12 21.0313 23.2964 21.0313C23.4583 21.0313 23.6203 20.8318 23.5442 20.3496C23.4989 20.0619 23.3283 19.4365 22.8963 19.2825C22.8405 19.2626 22.7876 19.2518 22.7382 19.2488ZM20.764 21.0313C20.4927 21.0313 20.2669 21.1007 20.128 21.2345C19.7715 21.5781 19.9317 22.182 20.4773 22.5548C20.7159 22.7171 21.0588 22.8149 21.3953 22.8149C21.7379 22.8149 22.0243 22.7141 22.2013 22.5315C22.5185 22.1986 22.3363 21.7274 21.7364 21.3309C21.4391 21.1347 21.0933 21.0313 20.764 21.0313Z" fill="#333333"/>
</svg>
