<svg width="15" height="30" viewBox="0 0 15 30" fill="none" xmlns="http://www.w3.org/2000/svg">
<path d="M13.6772 0.222412H9.49688C5.26167 0.222412 0.988298 3.38208 0.988298 10.441C0.988298 14.0974 2.5222 16.9451 5.33384 18.5646L0.187558 27.9753C-0.0563692 28.4204 -0.0627138 28.9248 0.170548 29.3246C0.398293 29.715 0.814615 29.9482 1.28417 29.9482H3.8872C4.47858 29.9482 4.93977 29.6594 5.1608 29.1535L9.98593 19.6185H10.3381V28.7598C10.3381 29.404 10.8761 29.9482 11.5129 29.9482H13.7872C14.5013 29.9482 15 29.4443 15 28.7229V1.5231C15.0001 0.75729 14.4562 0.222412 13.6772 0.222412ZM10.3382 15.3829H9.71699C7.30834 15.3829 5.87034 13.3965 5.87034 10.0693C5.87034 5.93208 7.68687 4.45806 9.38692 4.45806H10.3382V15.3829Z" fill="#333333"/>
</svg>
